<mxfile host="app.diagrams.net" agent="Mozilla/5.0 (Windows NT 10.0; Win64; x64) AppleWebKit/537.36 (KHTML, like Gecko) Chrome/135.0.0.0 Safari/537.36 Edg/135.0.0.0" version="26.2.13">
  <diagram name="Página-1" id="5tl5lUIXddi7ZRPMdtCS">
    <mxGraphModel dx="1671" dy="925" grid="1" gridSize="10" guides="1" tooltips="1" connect="1" arrows="1" fold="1" page="1" pageScale="1" pageWidth="827" pageHeight="1169" math="0" shadow="0">
      <root>
        <mxCell id="0" />
        <mxCell id="1" parent="0" />
        <mxCell id="U0Hp-pH1qIizd4nqvluJ-61" value="" style="rounded=0;whiteSpace=wrap;html=1;" parent="1" vertex="1">
          <mxGeometry x="124" y="170" width="666" height="570" as="geometry" />
        </mxCell>
        <mxCell id="U0Hp-pH1qIizd4nqvluJ-62" value="Programa" style="text;html=1;align=center;verticalAlign=middle;resizable=0;points=[];autosize=1;strokeColor=none;fillColor=none;fontSize=25;" parent="1" vertex="1">
          <mxGeometry x="392" y="180" width="130" height="40" as="geometry" />
        </mxCell>
        <mxCell id="U0Hp-pH1qIizd4nqvluJ-64" value="" style="rounded=1;whiteSpace=wrap;html=1;" parent="1" vertex="1">
          <mxGeometry x="170" y="270" width="260" height="400" as="geometry" />
        </mxCell>
        <mxCell id="U0Hp-pH1qIizd4nqvluJ-65" value="Servidor" style="text;html=1;align=center;verticalAlign=middle;whiteSpace=wrap;rounded=0;fontSize=15;" parent="1" vertex="1">
          <mxGeometry x="270" y="280" width="60" height="30" as="geometry" />
        </mxCell>
        <mxCell id="U0Hp-pH1qIizd4nqvluJ-66" value="" style="rounded=1;whiteSpace=wrap;html=1;" parent="1" vertex="1">
          <mxGeometry x="490" y="270" width="260" height="400" as="geometry" />
        </mxCell>
        <mxCell id="U0Hp-pH1qIizd4nqvluJ-67" value="Cliente" style="text;html=1;align=center;verticalAlign=middle;whiteSpace=wrap;rounded=0;fontSize=15;" parent="1" vertex="1">
          <mxGeometry x="590" y="280" width="60" height="30" as="geometry" />
        </mxCell>
        <mxCell id="U0Hp-pH1qIizd4nqvluJ-72" style="rounded=0;orthogonalLoop=1;jettySize=auto;html=1;exitX=0.5;exitY=0.5;exitDx=0;exitDy=0;exitPerimeter=0;entryX=0;entryY=0.5;entryDx=0;entryDy=0;" parent="1" source="U0Hp-pH1qIizd4nqvluJ-68" target="U0Hp-pH1qIizd4nqvluJ-70" edge="1">
          <mxGeometry relative="1" as="geometry" />
        </mxCell>
        <mxCell id="U0Hp-pH1qIizd4nqvluJ-68" value="Administrador" style="shape=umlActor;verticalLabelPosition=bottom;verticalAlign=top;html=1;outlineConnect=0;" parent="1" vertex="1">
          <mxGeometry x="40" y="320" width="30" height="60" as="geometry" />
        </mxCell>
        <mxCell id="U0Hp-pH1qIizd4nqvluJ-73" style="edgeStyle=orthogonalEdgeStyle;rounded=0;orthogonalLoop=1;jettySize=auto;html=1;exitX=0.5;exitY=1;exitDx=0;exitDy=0;" parent="1" source="U0Hp-pH1qIizd4nqvluJ-70" target="U0Hp-pH1qIizd4nqvluJ-71" edge="1">
          <mxGeometry relative="1" as="geometry" />
        </mxCell>
        <mxCell id="U0Hp-pH1qIizd4nqvluJ-70" value="&lt;div&gt;Configurar o Servidor&lt;/div&gt;" style="ellipse;whiteSpace=wrap;html=1;" parent="1" vertex="1">
          <mxGeometry x="225" y="330" width="150" height="60" as="geometry" />
        </mxCell>
        <mxCell id="U0Hp-pH1qIizd4nqvluJ-75" value="" style="edgeStyle=orthogonalEdgeStyle;rounded=0;orthogonalLoop=1;jettySize=auto;html=1;" parent="1" source="U0Hp-pH1qIizd4nqvluJ-71" target="U0Hp-pH1qIizd4nqvluJ-74" edge="1">
          <mxGeometry relative="1" as="geometry" />
        </mxCell>
        <mxCell id="U0Hp-pH1qIizd4nqvluJ-71" value="&lt;div&gt;Estabelece conexão segura&lt;/div&gt;&lt;div&gt;(RSA) com o Cliente&lt;/div&gt;" style="ellipse;whiteSpace=wrap;html=1;" parent="1" vertex="1">
          <mxGeometry x="225" y="410" width="150" height="60" as="geometry" />
        </mxCell>
        <mxCell id="U0Hp-pH1qIizd4nqvluJ-77" value="" style="edgeStyle=orthogonalEdgeStyle;rounded=0;orthogonalLoop=1;jettySize=auto;html=1;" parent="1" source="U0Hp-pH1qIizd4nqvluJ-74" target="U0Hp-pH1qIizd4nqvluJ-76" edge="1">
          <mxGeometry relative="1" as="geometry" />
        </mxCell>
        <mxCell id="U0Hp-pH1qIizd4nqvluJ-74" value="Recebimento de dados" style="ellipse;whiteSpace=wrap;html=1;" parent="1" vertex="1">
          <mxGeometry x="212.5" y="490" width="175" height="60" as="geometry" />
        </mxCell>
        <mxCell id="U0Hp-pH1qIizd4nqvluJ-76" value="Envio de dados porta serial" style="ellipse;whiteSpace=wrap;html=1;" parent="1" vertex="1">
          <mxGeometry x="225" y="570" width="150" height="60" as="geometry" />
        </mxCell>
        <mxCell id="tTjTtHQu4x3UStfjjnVe-3" style="edgeStyle=orthogonalEdgeStyle;rounded=0;orthogonalLoop=1;jettySize=auto;html=1;exitX=0.5;exitY=1;exitDx=0;exitDy=0;" edge="1" parent="1" source="tTjTtHQu4x3UStfjjnVe-4" target="tTjTtHQu4x3UStfjjnVe-6">
          <mxGeometry relative="1" as="geometry" />
        </mxCell>
        <mxCell id="tTjTtHQu4x3UStfjjnVe-4" value="&lt;div&gt;Configurar o Cliente&lt;/div&gt;" style="ellipse;whiteSpace=wrap;html=1;" vertex="1" parent="1">
          <mxGeometry x="545" y="330" width="150" height="60" as="geometry" />
        </mxCell>
        <mxCell id="tTjTtHQu4x3UStfjjnVe-5" value="" style="edgeStyle=orthogonalEdgeStyle;rounded=0;orthogonalLoop=1;jettySize=auto;html=1;" edge="1" parent="1" source="tTjTtHQu4x3UStfjjnVe-6" target="tTjTtHQu4x3UStfjjnVe-8">
          <mxGeometry relative="1" as="geometry" />
        </mxCell>
        <mxCell id="tTjTtHQu4x3UStfjjnVe-6" value="&lt;div&gt;Estabelece conexão segura&lt;/div&gt;&lt;div&gt;(RSA) com o Servidor&lt;/div&gt;" style="ellipse;whiteSpace=wrap;html=1;" vertex="1" parent="1">
          <mxGeometry x="545" y="410" width="150" height="60" as="geometry" />
        </mxCell>
        <mxCell id="tTjTtHQu4x3UStfjjnVe-7" value="" style="edgeStyle=orthogonalEdgeStyle;rounded=0;orthogonalLoop=1;jettySize=auto;html=1;" edge="1" parent="1" source="tTjTtHQu4x3UStfjjnVe-8" target="tTjTtHQu4x3UStfjjnVe-10">
          <mxGeometry relative="1" as="geometry" />
        </mxCell>
        <mxCell id="tTjTtHQu4x3UStfjjnVe-8" value="Escuta a porta serial" style="ellipse;whiteSpace=wrap;html=1;" vertex="1" parent="1">
          <mxGeometry x="532.5" y="490" width="175" height="60" as="geometry" />
        </mxCell>
        <mxCell id="tTjTtHQu4x3UStfjjnVe-10" value="Enviar dados ao servidor" style="ellipse;whiteSpace=wrap;html=1;" vertex="1" parent="1">
          <mxGeometry x="545" y="570" width="150" height="60" as="geometry" />
        </mxCell>
        <mxCell id="tTjTtHQu4x3UStfjjnVe-13" style="rounded=0;orthogonalLoop=1;jettySize=auto;html=1;exitX=0.5;exitY=0.5;exitDx=0;exitDy=0;exitPerimeter=0;entryX=1;entryY=0.5;entryDx=0;entryDy=0;" edge="1" parent="1" source="tTjTtHQu4x3UStfjjnVe-12" target="tTjTtHQu4x3UStfjjnVe-4">
          <mxGeometry relative="1" as="geometry" />
        </mxCell>
        <mxCell id="tTjTtHQu4x3UStfjjnVe-12" value="Administrador" style="shape=umlActor;verticalLabelPosition=bottom;verticalAlign=top;html=1;outlineConnect=0;" vertex="1" parent="1">
          <mxGeometry x="890" y="320" width="30" height="60" as="geometry" />
        </mxCell>
        <mxCell id="tTjTtHQu4x3UStfjjnVe-20" value="" style="rounded=0;orthogonalLoop=1;jettySize=auto;html=1;endArrow=halfCircle;endFill=0;endSize=6;strokeWidth=1;sketch=0;exitX=1;exitY=0.5;exitDx=0;exitDy=0;" edge="1" parent="1" source="tTjTtHQu4x3UStfjjnVe-22">
          <mxGeometry relative="1" as="geometry">
            <mxPoint x="430" y="480" as="sourcePoint" />
            <mxPoint x="455" y="470" as="targetPoint" />
          </mxGeometry>
        </mxCell>
        <mxCell id="tTjTtHQu4x3UStfjjnVe-21" value="" style="rounded=0;orthogonalLoop=1;jettySize=auto;html=1;endArrow=oval;endFill=0;sketch=0;sourcePerimeterSpacing=0;targetPerimeterSpacing=0;endSize=10;exitX=0;exitY=0.5;exitDx=0;exitDy=0;" edge="1" target="tTjTtHQu4x3UStfjjnVe-22" parent="1" source="U0Hp-pH1qIizd4nqvluJ-66">
          <mxGeometry relative="1" as="geometry">
            <mxPoint x="450" y="695" as="sourcePoint" />
          </mxGeometry>
        </mxCell>
        <mxCell id="tTjTtHQu4x3UStfjjnVe-23" value="" style="rounded=0;orthogonalLoop=1;jettySize=auto;html=1;endArrow=halfCircle;endFill=0;endSize=6;strokeWidth=1;sketch=0;exitX=1;exitY=0.5;exitDx=0;exitDy=0;" edge="1" parent="1" source="U0Hp-pH1qIizd4nqvluJ-64" target="tTjTtHQu4x3UStfjjnVe-22">
          <mxGeometry relative="1" as="geometry">
            <mxPoint x="430" y="470" as="sourcePoint" />
            <mxPoint x="455" y="470" as="targetPoint" />
          </mxGeometry>
        </mxCell>
        <mxCell id="tTjTtHQu4x3UStfjjnVe-22" value="" style="ellipse;whiteSpace=wrap;html=1;align=center;aspect=fixed;fillColor=none;strokeColor=none;resizable=0;perimeter=centerPerimeter;rotatable=0;allowArrows=0;points=[];outlineConnect=1;" vertex="1" parent="1">
          <mxGeometry x="450" y="465" width="10" height="10" as="geometry" />
        </mxCell>
        <mxCell id="tTjTtHQu4x3UStfjjnVe-24" value="Hardware Externo&lt;div&gt;Impressora&lt;/div&gt;" style="verticalAlign=top;align=left;spacingTop=8;spacingLeft=2;spacingRight=12;shape=cube;size=10;direction=south;fontStyle=4;html=1;whiteSpace=wrap;" vertex="1" parent="1">
          <mxGeometry x="207.5" y="810" width="180" height="120" as="geometry" />
        </mxCell>
        <mxCell id="tTjTtHQu4x3UStfjjnVe-25" style="rounded=0;orthogonalLoop=1;jettySize=auto;html=1;exitX=0.5;exitY=1;exitDx=0;exitDy=0;entryX=0;entryY=0;entryDx=0;entryDy=85;entryPerimeter=0;" edge="1" parent="1" source="U0Hp-pH1qIizd4nqvluJ-76" target="tTjTtHQu4x3UStfjjnVe-24">
          <mxGeometry relative="1" as="geometry" />
        </mxCell>
      </root>
    </mxGraphModel>
  </diagram>
</mxfile>
